<?xml version="1.0" encoding="utf-8"?>
<!-- Generator: Adobe Illustrator 24.1.3, SVG Export Plug-In . SVG Version: 6.00 Build 0)  -->
<svg version="1.1" id="Layer_1" xmlns="http://www.w3.org/2000/svg" xmlns:xlink="http://www.w3.org/1999/xlink" x="0px" y="0px"
	 viewBox="0 0 181.3 48.5" style="enable-background:new 0 0 181.3 48.5;" xml:space="preserve">
<style type="text/css">
	.st0{fill:#7E7E7E;}
	.st1{fill:#4285F4;}
	.st2{fill:#FFFFFF;}
	.st3{enable-background:new    ;}
	.st4{display:none;}
	.st5{display:inline;}
</style>
<g>
	<g>
		<path class="st0" d="M65.3,38.4v5.5H65v-2.7h-3.2v2.7h-0.4v-5.5h0.4V41H65v-2.5L65.3,38.4L65.3,38.4z"/>
		<path class="st0" d="M70.4,41.9h-3.7c0,0.4,0.1,0.7,0.2,1c0.2,0.3,0.4,0.5,0.6,0.6c0.3,0.1,0.5,0.2,0.8,0.2c0.4,0,0.8-0.1,1-0.3
			c0.3-0.2,0.5-0.5,0.5-0.8h0.4c-0.1,0.4-0.3,0.8-0.6,1.1c-0.3,0.3-0.8,0.4-1.3,0.4c-0.4,0-0.8-0.1-1.1-0.3
			c-0.3-0.2-0.6-0.4-0.7-0.8c-0.2-0.3-0.3-0.7-0.3-1.2c0-0.4,0.1-0.8,0.3-1.2c0.2-0.3,0.4-0.6,0.7-0.8c0.3-0.2,0.7-0.3,1.1-0.3
			c0.4,0,0.8,0.1,1.1,0.3c0.3,0.2,0.5,0.4,0.7,0.7c0.2,0.3,0.2,0.6,0.2,0.9C70.4,41.7,70.4,41.9,70.4,41.9z M69.8,40.7
			c-0.1-0.3-0.4-0.5-0.6-0.6c-0.3-0.1-0.5-0.2-0.8-0.2s-0.6,0.1-0.8,0.2c-0.3,0.1-0.5,0.3-0.6,0.6c-0.2,0.3-0.2,0.6-0.3,1H70
			C70.1,41.3,70,41,69.8,40.7z"/>
		<path class="st0" d="M71.5,40.7c0.2-0.3,0.4-0.6,0.7-0.8c0.3-0.2,0.7-0.3,1.1-0.3c0.4,0,0.8,0.1,1.1,0.3c0.3,0.2,0.5,0.5,0.7,0.8
			v-1.1h0.4v4.3H75v-1.1c-0.1,0.3-0.3,0.6-0.7,0.9c-0.3,0.2-0.7,0.3-1.1,0.3c-0.4,0-0.8-0.1-1.1-0.3c-0.3-0.2-0.6-0.4-0.7-0.8
			c-0.2-0.3-0.3-0.7-0.3-1.2C71.2,41.4,71.3,41,71.5,40.7z M74.8,40.8c-0.2-0.3-0.4-0.5-0.6-0.7c-0.3-0.2-0.6-0.2-0.9-0.2
			c-0.3,0-0.6,0.1-0.9,0.2c-0.3,0.1-0.5,0.4-0.6,0.6c-0.1,0.3-0.2,0.6-0.2,1c0,0.4,0.1,0.7,0.2,1c0.1,0.3,0.4,0.5,0.6,0.6
			c0.3,0.2,0.6,0.2,0.9,0.2c0.3,0,0.6-0.1,0.9-0.2c0.3-0.2,0.5-0.4,0.6-0.7c0.2-0.3,0.2-0.6,0.2-1C75,41.4,75,41.1,74.8,40.8z"/>
		<path class="st0" d="M77,38.1v5.8h-0.4v-5.8H77z"/>
		<path class="st0" d="M78.8,40v2.8c0,0.3,0.1,0.5,0.2,0.6c0.1,0.1,0.3,0.2,0.6,0.2H80v0.3h-0.5c-0.4,0-0.6-0.1-0.8-0.3
			c-0.2-0.2-0.3-0.5-0.3-0.9V40h-0.6v-0.3h0.6v-1.1h0.4v1.1H80V40L78.8,40L78.8,40z"/>
		<path class="st0" d="M84.1,40.1c0.3,0.3,0.5,0.8,0.5,1.4v2.5h-0.3v-2.5c0-0.5-0.1-0.9-0.4-1.2s-0.6-0.4-1-0.4
			c-0.5,0-0.8,0.1-1.1,0.4c-0.3,0.3-0.4,0.7-0.4,1.3v2.3h-0.4v-5.8h0.4v2.4c0.1-0.3,0.3-0.6,0.6-0.7c0.3-0.2,0.6-0.3,1-0.3
			C83.4,39.6,83.8,39.8,84.1,40.1z"/>
		<path class="st0" d="M85.8,40.6c0.2-0.3,0.4-0.6,0.7-0.8c0.3-0.2,0.7-0.3,1.1-0.3c0.5,0,1,0.1,1.3,0.4c0.3,0.3,0.6,0.6,0.6,1.1
			h-0.4c-0.1-0.4-0.2-0.7-0.5-0.9s-0.6-0.3-1.1-0.3c-0.3,0-0.6,0.1-0.9,0.2c-0.3,0.1-0.5,0.3-0.6,0.6s-0.2,0.6-0.2,1
			c0,0.4,0.1,0.8,0.2,1c0.2,0.3,0.4,0.5,0.6,0.6c0.3,0.1,0.5,0.2,0.9,0.2c0.4,0,0.8-0.1,1.1-0.3c0.3-0.2,0.5-0.5,0.5-0.9h0.4
			c-0.1,0.4-0.3,0.8-0.6,1.1c-0.3,0.3-0.8,0.4-1.3,0.4c-0.4,0-0.8-0.1-1.1-0.3c-0.3-0.2-0.6-0.4-0.7-0.8c-0.2-0.3-0.3-0.7-0.3-1.2
			C85.6,41.4,85.6,41,85.8,40.6z"/>
		<path class="st0" d="M90.6,40.7c0.2-0.3,0.4-0.6,0.7-0.8c0.3-0.2,0.7-0.3,1.1-0.3c0.4,0,0.8,0.1,1.1,0.3s0.5,0.5,0.7,0.8v-1.1h0.4
			v4.3h-0.4v-1.1c-0.1,0.3-0.3,0.6-0.7,0.9c-0.3,0.2-0.7,0.3-1.1,0.3c-0.4,0-0.8-0.1-1.1-0.3c-0.3-0.2-0.6-0.4-0.7-0.8
			c-0.2-0.3-0.3-0.7-0.3-1.2C90.4,41.4,90.5,41,90.6,40.7z M94,40.8c-0.2-0.3-0.4-0.5-0.6-0.7c-0.3-0.2-0.6-0.2-0.9-0.2
			c-0.3,0-0.6,0.1-0.9,0.2c-0.3,0.1-0.5,0.4-0.6,0.6c-0.1,0.3-0.2,0.6-0.2,1c0,0.4,0.1,0.7,0.2,1c0.1,0.3,0.4,0.5,0.6,0.6
			c0.3,0.2,0.6,0.2,0.9,0.2c0.3,0,0.6-0.1,0.9-0.2c0.3-0.2,0.5-0.4,0.6-0.7c0.2-0.3,0.2-0.6,0.2-1C94.2,41.4,94.2,41.1,94,40.8z"/>
		<path class="st0" d="M96.7,39.8c0.3-0.2,0.6-0.2,1-0.2V40h-0.1c-0.4,0-0.8,0.1-1,0.4c-0.3,0.2-0.4,0.6-0.4,1.2v2.5h-0.4v-4.3h0.4
			v0.9C96.3,40.2,96.5,40,96.7,39.8z"/>
		<path class="st0" d="M102.3,41.9h-3.7c0,0.4,0.1,0.7,0.2,1c0.2,0.3,0.4,0.5,0.6,0.6c0.3,0.1,0.5,0.2,0.8,0.2c0.4,0,0.8-0.1,1-0.3
			c0.3-0.2,0.5-0.5,0.5-0.8h0.4c-0.1,0.4-0.3,0.8-0.6,1.1s-0.8,0.4-1.3,0.4c-0.4,0-0.8-0.1-1.1-0.3c-0.3-0.2-0.6-0.4-0.7-0.8
			c-0.2-0.3-0.3-0.7-0.3-1.2c0-0.4,0.1-0.8,0.3-1.2c0.2-0.3,0.4-0.6,0.7-0.8c0.3-0.2,0.7-0.3,1.1-0.3c0.4,0,0.8,0.1,1.1,0.3
			c0.3,0.2,0.5,0.4,0.7,0.7c0.2,0.3,0.2,0.6,0.2,0.9C102.4,41.7,102.4,41.9,102.3,41.9z M101.8,40.7c-0.1-0.3-0.4-0.5-0.6-0.6
			c-0.3-0.1-0.5-0.2-0.8-0.2c-0.3,0-0.6,0.1-0.8,0.2c-0.3,0.1-0.5,0.3-0.6,0.6c-0.2,0.3-0.2,0.6-0.3,1h3.3
			C102,41.3,102,41,101.8,40.7z"/>
		<path class="st0" d="M108.7,42.5h-2.6l-0.5,1.4h-0.4l2-5.4h0.4l2,5.4h-0.4L108.7,42.5z M108.6,42.2l-1.2-3.2l-1.2,3.2H108.6z"/>
		<path class="st0" d="M113.6,40.1c0.3,0.3,0.5,0.8,0.5,1.4v2.5h-0.3v-2.5c0-0.5-0.1-0.9-0.4-1.2s-0.6-0.4-1-0.4
			c-0.5,0-0.8,0.1-1.1,0.4c-0.3,0.3-0.4,0.7-0.4,1.3v2.3h-0.4v-4.3h0.4v0.9c0.1-0.3,0.3-0.6,0.6-0.7c0.3-0.2,0.6-0.3,1-0.3
			C112.9,39.6,113.3,39.8,113.6,40.1z"/>
		<path class="st0" d="M118.6,39.7l-2.5,6.2h-0.4l0.8-2l-1.8-4.3h0.4l1.6,3.9l1.5-3.9H118.6L118.6,39.7z"/>
		<path class="st0" d="M119.9,40v2.8c0,0.3,0.1,0.5,0.2,0.6c0.1,0.1,0.3,0.2,0.6,0.2h0.5v0.3h-0.5c-0.4,0-0.6-0.1-0.8-0.3
			c-0.2-0.2-0.3-0.5-0.3-0.9V40h-0.6v-0.3h0.6v-1.1h0.4v1.1h1.3V40L119.9,40L119.9,40z"/>
		<path class="st0" d="M122,38.7c-0.1-0.1-0.1-0.1-0.1-0.2c0-0.1,0-0.2,0.1-0.2c0.1-0.1,0.1-0.1,0.2-0.1c0.1,0,0.2,0,0.2,0.1
			c0.1,0.1,0.1,0.1,0.1,0.2c0,0.1,0,0.2-0.1,0.2s-0.1,0.1-0.2,0.1C122.1,38.7,122,38.7,122,38.7z M122.4,39.7v4.3H122v-4.3H122.4z"
			/>
		<path class="st0" d="M129.8,40.1c0.3,0.3,0.5,0.8,0.5,1.4v2.5H130v-2.5c0-0.5-0.1-0.9-0.4-1.2c-0.2-0.3-0.6-0.4-1-0.4
			c-0.4,0-0.8,0.2-1.1,0.5s-0.4,0.7-0.4,1.3v2.3h-0.3v-2.5c0-0.5-0.1-0.9-0.4-1.2c-0.2-0.3-0.6-0.4-1-0.4c-0.4,0-0.8,0.2-1.1,0.5
			s-0.4,0.7-0.4,1.3v2.3h-0.4v-4.3h0.4v0.9c0.1-0.3,0.3-0.6,0.6-0.8c0.3-0.2,0.6-0.3,0.9-0.3c0.4,0,0.7,0.1,1,0.3
			c0.3,0.2,0.5,0.5,0.6,0.9c0.1-0.4,0.3-0.7,0.6-0.9c0.3-0.2,0.6-0.3,1-0.3C129.1,39.6,129.5,39.8,129.8,40.1z"/>
		<path class="st0" d="M135.3,41.9h-3.7c0,0.4,0.1,0.7,0.2,1c0.2,0.3,0.4,0.5,0.6,0.6c0.3,0.1,0.5,0.2,0.8,0.2c0.4,0,0.8-0.1,1-0.3
			c0.3-0.2,0.5-0.5,0.5-0.8h0.4c-0.1,0.4-0.3,0.8-0.6,1.1s-0.8,0.4-1.3,0.4c-0.4,0-0.8-0.1-1.1-0.3c-0.3-0.2-0.6-0.4-0.7-0.8
			c-0.2-0.3-0.3-0.7-0.3-1.2c0-0.4,0.1-0.8,0.3-1.2c0.2-0.3,0.4-0.6,0.7-0.8c0.3-0.2,0.7-0.3,1.1-0.3c0.4,0,0.8,0.1,1.1,0.3
			c0.3,0.2,0.5,0.4,0.7,0.7c0.2,0.3,0.2,0.6,0.2,0.9C135.3,41.7,135.3,41.9,135.3,41.9z M134.8,40.7c-0.1-0.3-0.4-0.5-0.6-0.6
			c-0.3-0.1-0.5-0.2-0.8-0.2c-0.3,0-0.6,0.1-0.8,0.2c-0.3,0.1-0.5,0.3-0.6,0.6c-0.2,0.3-0.2,0.6-0.3,1h3.3
			C135,41.3,134.9,41,134.8,40.7z"/>
		<path class="st0" d="M141.7,42.5h-2.6l-0.5,1.4h-0.4l2-5.4h0.4l2,5.4h-0.4L141.7,42.5z M141.5,42.2l-1.2-3.2l-1.2,3.2H141.5z"/>
		<path class="st0" d="M146.6,40.1c0.3,0.3,0.5,0.8,0.5,1.4v2.5h-0.3v-2.5c0-0.5-0.1-0.9-0.4-1.2s-0.6-0.4-1-0.4
			c-0.5,0-0.8,0.1-1.1,0.4c-0.3,0.3-0.4,0.7-0.4,1.3v2.3h-0.4v-4.3h0.4v0.9c0.1-0.3,0.3-0.6,0.6-0.7c0.3-0.2,0.6-0.3,1-0.3
			C145.8,39.6,146.3,39.8,146.6,40.1z"/>
		<path class="st0" d="M151.6,39.7l-2.5,6.2h-0.4l0.8-2l-1.8-4.3h0.4l1.6,3.9l1.5-3.9H151.6L151.6,39.7z"/>
		<path class="st0" d="M157.9,39.7l-1.3,4.3h-0.3l-1.4-3.8l-1.4,3.8h-0.3l-1.3-4.3h0.4l1.1,3.9l1.4-3.9h0.3l1.4,3.8l1.1-3.8H157.9
			L157.9,39.7z"/>
		<path class="st0" d="M161.8,40.1c0.3,0.3,0.5,0.8,0.5,1.4v2.5h-0.3v-2.5c0-0.5-0.1-0.9-0.4-1.2c-0.3-0.3-0.6-0.4-1-0.4
			c-0.5,0-0.8,0.1-1.1,0.4c-0.3,0.3-0.4,0.7-0.4,1.3v2.3h-0.4v-5.8h0.4v2.4c0.1-0.3,0.3-0.6,0.6-0.7c0.3-0.2,0.6-0.3,1-0.3
			C161,39.6,161.5,39.8,161.8,40.1z"/>
		<path class="st0" d="M167.3,41.9h-3.7c0,0.4,0.1,0.7,0.2,1c0.2,0.3,0.4,0.5,0.6,0.6c0.3,0.1,0.5,0.2,0.8,0.2c0.4,0,0.8-0.1,1-0.3
			c0.3-0.2,0.5-0.5,0.5-0.8h0.4c-0.1,0.4-0.3,0.8-0.6,1.1s-0.8,0.4-1.3,0.4c-0.4,0-0.8-0.1-1.1-0.3c-0.3-0.2-0.6-0.4-0.7-0.8
			c-0.2-0.3-0.3-0.7-0.3-1.2c0-0.4,0.1-0.8,0.3-1.2c0.2-0.3,0.4-0.6,0.7-0.8c0.3-0.2,0.7-0.3,1.1-0.3c0.4,0,0.8,0.1,1.1,0.3
			c0.3,0.2,0.5,0.4,0.7,0.7c0.2,0.3,0.2,0.6,0.2,0.9C167.3,41.7,167.3,41.9,167.3,41.9z M166.7,40.7c-0.1-0.3-0.4-0.5-0.6-0.6
			c-0.3-0.1-0.5-0.2-0.8-0.2s-0.6,0.1-0.8,0.2c-0.3,0.1-0.5,0.3-0.6,0.6c-0.2,0.3-0.2,0.6-0.3,1h3.3C166.9,41.3,166.9,41,166.7,40.7
			z"/>
		<path class="st0" d="M169.2,39.8c0.3-0.2,0.6-0.2,1-0.2V40h-0.1c-0.4,0-0.8,0.1-1,0.4c-0.3,0.2-0.4,0.6-0.4,1.2v2.5h-0.4v-4.3h0.4
			v0.9C168.8,40.2,169,40,169.2,39.8z"/>
		<path class="st0" d="M174.8,41.9h-3.7c0,0.4,0.1,0.7,0.2,1c0.2,0.3,0.4,0.5,0.6,0.6c0.3,0.1,0.5,0.2,0.8,0.2c0.4,0,0.8-0.1,1-0.3
			c0.3-0.2,0.5-0.5,0.5-0.8h0.4c-0.1,0.4-0.3,0.8-0.6,1.1s-0.8,0.4-1.3,0.4c-0.4,0-0.8-0.1-1.1-0.3c-0.3-0.2-0.6-0.4-0.7-0.8
			c-0.2-0.3-0.3-0.7-0.3-1.2c0-0.4,0.1-0.8,0.3-1.2c0.2-0.3,0.4-0.6,0.7-0.8c0.3-0.2,0.7-0.3,1.1-0.3c0.4,0,0.8,0.1,1.1,0.3
			c0.3,0.2,0.5,0.4,0.7,0.7s0.2,0.6,0.2,0.9C174.8,41.7,174.8,41.9,174.8,41.9z M174.3,40.7c-0.1-0.3-0.4-0.5-0.6-0.6
			c-0.3-0.1-0.5-0.2-0.8-0.2s-0.6,0.1-0.8,0.2c-0.3,0.1-0.5,0.3-0.6,0.6c-0.2,0.3-0.2,0.6-0.3,1h3.3C174.5,41.3,174.4,41,174.3,40.7
			z"/>
	</g>
	<g>
		<g>
			<g>
				<path class="st1" d="M0.5,4.2c0-1.4,1.4-2.5,2.8-2.5h28.3c2.3,0,4.5,0,6.8,0c1.5,0,2.9,0,4.4,0c1,0,2.2,0,3.1,0.8
					c1.1,1,0.8,2.3,0.9,3.7c0,0.5,0,1,0,1.5c0,1.6,0,3.1,0,4.7c0,2.4,0,4.9,0,7.3c0,0,0,0,0,0l-0.1,23.8c0,0,0,1.7,0,1.7
					c0,2.1-2,2.9-3.8,2.8c-0.9,0-1.9-0.1-2.8-0.1c-1.2,0-2.4,0-3.5,0c-3.2,0-6.4,0-9.6,0c-3.5,0-7.1,0-10.6,0c-3,0-5.9,0-8.9,0
					c-1.3,0-2.6,0-3.8,0c-1,0-2-0.2-2.7-1.1c-0.7-0.9-0.6-2.2-0.6-3.3c0.1-1.3,0-2.7,0-4c0-3.3,0-6.6,0-9.9c0-2.6,0-5.2,0-7.9
					c0-0.4,0-0.7,0-1.1C0.5,20.7,0.5,4.2,0.5,4.2z"/>
				<g>
					<g>
						<g>
							<g>
								<g>
									<path class="st2" d="M26.6,14.1c0-0.1-0.1-0.3-0.1-0.4c-0.4-1.4-1.5-2.7-3-3.8c-0.3-0.2-0.6-0.2-0.8-0.2
										c-2.6-1.6-5.9-2.4-8.4-2.2c-3.9,0.4-4.1,2.1-4.5,5.1v0c-0.3,0.2-0.6,0.6-0.5,1c0.1,0.6,0.6,1,1.2,1c0.6-0.1,1-0.6,1-1.2
										c0-0.3-0.1-0.5-0.3-0.6l0,0c0.4-2.9,0.5-3.6,3.3-3.9c2.2-0.2,5.2,0.6,7.5,2c0,0.3,0.2,0.5,0.4,0.7c1,0.7,2.2,1.9,2.4,3.5
										c0.1,1.5-0.9,2.9-1.7,3.8c-0.2,0.2-0.3,0.5-0.3,0.8c-2,1.8-4.8,3.1-7,3.3c-2.8,0.3-3-0.5-3.9-3.2l0,0
										c0.1-0.2,0.2-0.4,0.2-0.7c-0.1-0.6-0.6-1-1.2-1c-0.6,0.1-1,0.6-1,1.2c0,0.4,0.3,0.8,0.7,0.9l0,0c0.9,2.8,1.5,4.5,5.3,4.1
										c2.5-0.2,5.7-1.7,7.9-3.7c0.3,0,0.6-0.1,0.8-0.3c1.4-1.5,2.2-3,2.3-4.6c0-0.1,0-0.1,0-0.2L26.6,14.1z"/>
								</g>
							</g>
						</g>
					</g>
					<g>
						<g>
							<path class="st2" d="M26.5,13.7c-0.2,0-0.3,0-0.5-0.1l-1,1.9c0.6,0,1.1,0.1,1.7,0.2c5.6,1,9.9,5.6,10.3,11.4
								c0,0.3,0,0.6,0,0.9c0,0.2,0,0.5,0,0.7c-0.3,6.2-5.1,11.1-11.2,11.8c-0.4,0-0.8,0.1-1.3,0.1c-0.1,0-0.3,0-0.4,0
								c-4.9-0.1-9.1-3.1-11-7.3c-0.1-0.2-0.2-0.5-0.3-0.7c-0.3,0.1-0.5,0.1-0.8,0.1h-1.2c0.1,0.4,0.3,0.7,0.4,1.1
								c2.2,5,7.2,8.5,13.1,8.5c7.9,0,14.3-6.4,14.3-14.3C38.7,20.6,33.4,14.7,26.5,13.7z"/>
						</g>
					</g>
					<g>
						<g>
							<path class="st2" d="M11.6,27.7c-1.6,0-3,1.3-3,3c0,1.6,1.2,2.9,2.8,3c0.1,0,0.1,0,0.2,0c0.6,0,1.1-0.2,1.6-0.5
								c0.8-0.5,1.4-1.4,1.4-2.5C14.5,29.1,13.2,27.7,11.6,27.7z M11.6,32.3c-0.9,0-1.7-0.7-1.7-1.7c0-0.9,0.7-1.7,1.7-1.7
								c0.9,0,1.7,0.7,1.7,1.7C13.2,31.6,12.5,32.3,11.6,32.3z"/>
						</g>
					</g>
					<g>
						<g>
							<path class="st2" d="M31.9,23.4c-0.2-0.2-0.6-0.2-0.8,0l-6,6c-0.5-0.2-1-0.2-1.4,0l-2.8-2.8c-0.2-0.2-0.6-0.2-0.8,0
								c-0.2,0.2-0.2,0.6,0,0.8l2.8,2.8c-0.4,0.8,0,1.8,0.8,2.2c0.6,0.3,1.4,0.2,1.9-0.3c0.5-0.5,0.6-1.3,0.3-1.9l6-6
								C32.2,24,32.2,23.6,31.9,23.4z M24.9,31.3c-0.2,0.2-0.6,0.2-0.8,0c-0.2-0.2-0.2-0.6,0-0.8c0.2-0.2,0.6-0.2,0.8,0
								C25.1,30.7,25.1,31.1,24.9,31.3z"/>
						</g>
					</g>
					<g>
						<g>
							<path class="st2" d="M38.2,27.1v1.6c0,0,0,0,0,0h-3.6c0,0,0,0,0,0v-1.6c0,0,0,0,0,0L38.2,27.1C38.2,27,38.2,27,38.2,27.1z"/>
						</g>
					</g>
					<g>
						<g>
							<path class="st2" d="M25.8,41.6h-1.6c0,0,0,0,0,0V38c0,0,0,0,0,0h1.6c0,0,0,0,0,0L25.8,41.6C25.8,41.6,25.8,41.6,25.8,41.6z"
								/>
						</g>
					</g>
				</g>
			</g>
			<g>
				<g class="st3">
					<g>
						<path class="st1" d="M58.5,5.6h7c1.6,0,3.1,0.2,4.4,0.8c1.3,0.5,2.4,1.2,3.4,2.1c0.9,0.9,1.6,2,2.1,3.3
							c0.5,1.3,0.7,2.7,0.7,4.2c0,1.5-0.2,3-0.7,4.2c-0.5,1.3-1.2,2.4-2.1,3.3c-0.9,0.9-2,1.6-3.4,2.1c-1.3,0.5-2.8,0.8-4.4,0.8h-7
							V5.6z M65.3,22.6c1.1,0,2.1-0.2,3-0.5c0.9-0.3,1.6-0.8,2.2-1.3c0.6-0.6,1-1.3,1.3-2.1c0.3-0.8,0.4-1.7,0.4-2.7
							s-0.1-1.9-0.4-2.7s-0.7-1.5-1.3-2.1c-0.6-0.6-1.3-1-2.2-1.3c-0.9-0.3-1.9-0.5-3-0.5h-2.9v13.3H65.3z"/>
					</g>
					<g>
						<path class="st1" d="M85.1,11.7c1.1,0,2.1,0.2,3,0.6c0.9,0.4,1.7,0.9,2.4,1.6s1.2,1.5,1.6,2.4c0.4,0.9,0.6,1.9,0.6,3
							s-0.2,2.1-0.6,3c-0.4,0.9-0.9,1.7-1.6,2.4c-0.7,0.7-1.5,1.2-2.4,1.6c-0.9,0.4-1.9,0.6-3,0.6c-1.1,0-2.1-0.2-3-0.6
							s-1.7-0.9-2.4-1.6c-0.7-0.7-1.2-1.5-1.6-2.4c-0.4-0.9-0.6-1.9-0.6-3s0.2-2.1,0.6-3c0.4-0.9,0.9-1.7,1.6-2.4s1.5-1.2,2.4-1.6
							C83,11.8,84,11.7,85.1,11.7z M85.1,23.3c0.5,0,1-0.1,1.4-0.3c0.5-0.2,0.9-0.4,1.2-0.8c0.3-0.3,0.6-0.8,0.8-1.3
							c0.2-0.5,0.3-1.1,0.3-1.7c0-0.6-0.1-1.2-0.3-1.7c-0.2-0.5-0.5-0.9-0.8-1.3c-0.3-0.3-0.7-0.6-1.2-0.8c-0.5-0.2-0.9-0.3-1.4-0.3
							c-0.5,0-1,0.1-1.4,0.3c-0.4,0.2-0.8,0.4-1.2,0.8c-0.3,0.3-0.6,0.8-0.8,1.3c-0.2,0.5-0.3,1.1-0.3,1.7c0,0.6,0.1,1.2,0.3,1.7
							c0.2,0.5,0.5,0.9,0.8,1.3s0.7,0.6,1.2,0.8C84.1,23.2,84.6,23.3,85.1,23.3z"/>
					</g>
					<g>
						<path class="st1" d="M108.5,22.7c-0.6,1.2-1.5,2.2-2.6,2.9c-1.1,0.8-2.5,1.1-4.2,1.1c-1.1,0-2.1-0.2-3-0.6
							c-0.9-0.4-1.7-0.9-2.4-1.6s-1.2-1.5-1.6-2.4c-0.4-0.9-0.6-1.9-0.6-3c0-1.1,0.2-2.1,0.6-3c0.4-0.9,0.9-1.7,1.6-2.4
							c0.7-0.7,1.5-1.2,2.4-1.6c0.9-0.4,1.9-0.6,3-0.6c1.6,0,3,0.4,4.1,1.1c1.1,0.8,1.9,1.7,2.5,2.9l-3.5,1.4
							c-0.3-0.7-0.7-1.2-1.3-1.5c-0.5-0.3-1.2-0.5-1.9-0.5c-0.5,0-1,0.1-1.4,0.3c-0.4,0.2-0.8,0.5-1.2,0.8c-0.3,0.3-0.6,0.8-0.8,1.3
							C98.1,18,98,18.6,98,19.2c0,0.6,0.1,1.2,0.3,1.7c0.2,0.5,0.5,0.9,0.8,1.3c0.3,0.3,0.7,0.6,1.2,0.8c0.4,0.2,0.9,0.3,1.4,0.3
							c0.8,0,1.5-0.2,2-0.5c0.6-0.4,1-0.9,1.3-1.5L108.5,22.7z"/>
					</g>
				</g>
				<g class="st3">
					<g>
						<path d="M115.7,26.3v-17h-5.8V5.6h15.5v3.7h-5.8v17H115.7z"/>
					</g>
					<g>
						<path d="M128.9,10.2c-0.3,0-0.6-0.1-0.9-0.2c-0.3-0.1-0.6-0.3-0.8-0.5c-0.2-0.2-0.4-0.5-0.5-0.8c-0.1-0.3-0.2-0.6-0.2-1
							c0-0.3,0.1-0.7,0.2-1c0.1-0.3,0.3-0.5,0.5-0.8c0.2-0.2,0.5-0.4,0.8-0.5c0.3-0.1,0.6-0.2,0.9-0.2c0.7,0,1.3,0.2,1.7,0.7
							c0.5,0.5,0.7,1,0.7,1.7c0,0.7-0.2,1.2-0.7,1.7C130.2,10,129.6,10.2,128.9,10.2z M127.1,26.3V12.1h3.8v14.2H127.1z"/>
					</g>
					<g>
						<path d="M134.3,12.1h3.6V14h0.2c0.4-0.7,1-1.3,1.8-1.7c0.8-0.4,1.6-0.6,2.5-0.6c1.1,0,2,0.2,2.7,0.8s1.3,1.1,1.6,1.9
							c0.4-0.7,1.1-1.3,1.9-1.8c0.8-0.5,1.8-0.8,3-0.8c0.9,0,1.6,0.1,2.3,0.4c0.6,0.3,1.2,0.7,1.6,1.2c0.4,0.5,0.7,1.1,0.9,1.8
							c0.2,0.7,0.3,1.5,0.3,2.3v8.9h-3.8V18c0-1.9-0.8-2.9-2.4-2.9c-0.5,0-0.9,0.1-1.3,0.3s-0.7,0.5-1,0.9c-0.3,0.4-0.5,0.8-0.6,1.3
							c-0.1,0.5-0.2,1.1-0.2,1.7v6.9h-3.8V18c0-1.9-0.8-2.9-2.5-2.9c-0.5,0-0.9,0.1-1.3,0.3c-0.4,0.2-0.7,0.5-0.9,0.9
							c-0.2,0.4-0.4,0.8-0.6,1.3c-0.1,0.5-0.2,1.1-0.2,1.7v6.9h-3.8L134.3,12.1L134.3,12.1z"/>
					</g>
					<g>
						<path d="M173.2,22.9c-0.7,1.2-1.5,2.1-2.6,2.8c-1.1,0.7-2.5,1.1-4.1,1.1c-1.1,0-2.1-0.2-3-0.6s-1.7-0.9-2.4-1.6
							c-0.7-0.7-1.2-1.5-1.6-2.4c-0.4-0.9-0.6-1.9-0.6-3c0-1,0.2-2,0.6-2.9c0.4-0.9,0.9-1.7,1.5-2.4c0.7-0.7,1.4-1.2,2.3-1.6
							c0.9-0.4,1.9-0.6,3-0.6c1.1,0,2.2,0.2,3,0.6c0.9,0.4,1.6,0.9,2.2,1.6c0.6,0.7,1,1.5,1.4,2.4c0.3,0.9,0.5,1.9,0.5,3
							c0,0.1,0,0.3,0,0.3c0,0.1,0,0.2,0,0.3c0,0.1,0,0.2,0,0.3h-10.7c0.1,0.6,0.2,1.1,0.5,1.5c0.2,0.4,0.5,0.8,0.9,1
							c0.4,0.3,0.7,0.5,1.2,0.6c0.4,0.1,0.9,0.2,1.3,0.2c0.9,0,1.6-0.2,2.2-0.6s1-0.9,1.3-1.5L173.2,22.9z M169.7,17.4
							c0-0.2-0.1-0.5-0.2-0.8c-0.1-0.3-0.4-0.6-0.6-0.9c-0.3-0.3-0.6-0.5-1-0.7c-0.4-0.2-0.9-0.3-1.5-0.3c-0.8,0-1.5,0.2-2.1,0.7
							c-0.6,0.5-1.1,1.1-1.3,1.9L169.7,17.4L169.7,17.4z"/>
					</g>
				</g>
				<g>
					<rect x="58.5" y="32.3" class="st0" width="114.9" height="0.4"/>
				</g>
				<g class="st4">
					<g class="st5">
						<path class="st0" d="M62.8,41.2h-3.2v2.6h-0.4v-5.5h0.4v2.5h3.2v-2.5h0.4v5.5h-0.4V41.2z"/>
					</g>
					<g class="st5">
						<path class="st0" d="M66.3,43.9c-1.2,0-2.1-0.8-2.1-2.2c0-1.3,0.9-2.2,2.1-2.2c1.3,0,2,0.9,2,1.9c0,0.2,0,0.3,0,0.4h-3.7
							c0,1.2,0.8,1.7,1.7,1.7c0.8,0,1.4-0.4,1.6-1.1h0.4C68,43.3,67.3,43.9,66.3,43.9z M64.6,41.6h3.3c0.1-1.2-0.8-1.7-1.6-1.7
							C65.4,39.9,64.6,40.4,64.6,41.6z"/>
					</g>
					<g class="st5">
						<path class="st0" d="M71.1,39.6c0.9,0,1.6,0.5,1.8,1.2v-1.1h0.4v4.2h-0.4v-1.1c-0.2,0.6-0.9,1.2-1.8,1.2c-1.2,0-2-0.8-2-2.2
							C69.1,40.4,69.9,39.6,71.1,39.6z M71.2,39.9c-1,0-1.7,0.7-1.7,1.9c0,1.2,0.7,1.9,1.7,1.9c1,0,1.7-0.7,1.7-1.9
							C72.9,40.6,72.1,39.9,71.2,39.9z"/>
					</g>
					<g class="st5">
						<path class="st0" d="M74.5,38.1h0.4v5.8h-0.4V38.1z"/>
					</g>
					<g class="st5">
						<path class="st0" d="M76.3,39.9h-0.6v-0.3h0.6v-1.1h0.3v1.1h1.3v0.3h-1.3v2.8c0,0.6,0.2,0.8,0.8,0.8h0.5v0.3h-0.5
							c-0.7,0-1.1-0.3-1.1-1.1V39.9z"/>
					</g>
					<g class="st5">
						<path class="st0" d="M78.9,38.1h0.4v2.4c0.2-0.7,0.9-1,1.6-1c0.9,0,1.7,0.6,1.7,1.8v2.5h-0.3v-2.5c0-1-0.6-1.6-1.4-1.6
							c-0.9,0-1.5,0.6-1.5,1.7v2.3h-0.4L78.9,38.1L78.9,38.1z"/>
					</g>
					<g class="st5">
						<path class="st0" d="M85.5,39.6c1.1,0,1.8,0.6,1.9,1.5h-0.4c-0.1-0.7-0.7-1.2-1.6-1.2c-0.9,0-1.7,0.6-1.7,1.9
							c0,1.3,0.8,1.9,1.7,1.9c0.8,0,1.4-0.4,1.6-1.2h0.4c-0.2,0.9-0.9,1.5-1.9,1.5c-1.2,0-2-0.8-2-2.2
							C83.5,40.4,84.3,39.6,85.5,39.6z"/>
					</g>
					<g class="st5">
						<path class="st0" d="M90.4,39.6c0.9,0,1.6,0.5,1.8,1.2v-1.1h0.4v4.2h-0.4v-1.1c-0.2,0.6-0.9,1.2-1.8,1.2c-1.2,0-2-0.8-2-2.2
							C88.3,40.4,89.2,39.6,90.4,39.6z M90.4,39.9c-1,0-1.7,0.7-1.7,1.9c0,1.2,0.7,1.9,1.7,1.9c1,0,1.7-0.7,1.7-1.9
							C92.2,40.6,91.4,39.9,90.4,39.9z"/>
					</g>
					<g class="st5">
						<path class="st0" d="M94.1,43.9h-0.4v-4.2h0.4v0.9c0.2-0.6,0.7-1,1.6-1v0.4h-0.1c-0.7,0-1.4,0.4-1.4,1.5V43.9z"/>
					</g>
					<g class="st5">
						<path class="st0" d="M98.3,43.9c-1.2,0-2.1-0.8-2.1-2.2c0-1.3,0.9-2.2,2.1-2.2c1.3,0,2,0.9,2,1.9c0,0.2,0,0.3,0,0.4h-3.7
							c0,1.2,0.8,1.7,1.7,1.7c0.8,0,1.4-0.4,1.6-1.1h0.4C100.1,43.3,99.4,43.9,98.3,43.9z M96.6,41.6h3.3c0.1-1.2-0.8-1.7-1.6-1.7
							C97.5,39.9,96.7,40.4,96.6,41.6z"/>
					</g>
					<g class="st5">
						<path class="st0" d="M106.7,42.5h-2.6l-0.5,1.4h-0.4l2-5.3h0.4l2,5.3h-0.4L106.7,42.5z M105.4,39l-1.2,3.2h2.4L105.4,39z"/>
					</g>
					<g class="st5">
						<path class="st0" d="M111.7,41.4c0-1-0.6-1.6-1.4-1.6c-0.9,0-1.5,0.6-1.5,1.7v2.3h-0.4v-4.2h0.4v0.9c0.2-0.7,0.9-1,1.6-1
							c0.9,0,1.7,0.6,1.7,1.8v2.5h-0.3L111.7,41.4L111.7,41.4z"/>
					</g>
					<g class="st5">
						<path class="st0" d="M116.2,39.6h0.4l-2.5,6.2h-0.4l0.8-2l-1.8-4.2h0.4l1.6,3.8L116.2,39.6z"/>
					</g>
					<g class="st5">
						<path class="st0" d="M117.5,39.9h-0.6v-0.3h0.6v-1.1h0.4v1.1h1.3v0.3h-1.3v2.8c0,0.6,0.2,0.8,0.8,0.8h0.5v0.3h-0.5
							c-0.7,0-1.1-0.3-1.1-1.1L117.5,39.9L117.5,39.9z"/>
					</g>
					<g class="st5">
						<path class="st0" d="M120,38.4c0-0.2,0.1-0.3,0.3-0.3s0.3,0.1,0.3,0.3c0,0.2-0.1,0.3-0.3,0.3C120.1,38.7,120,38.6,120,38.4z
							 M120.1,39.6h0.4v4.2h-0.4V39.6z"/>
					</g>
					<g class="st5">
						<path class="st0" d="M128,41.4c0-1-0.5-1.6-1.4-1.6c-0.8,0-1.4,0.6-1.4,1.8v2.2h-0.3v-2.5c0-1-0.5-1.6-1.4-1.6
							c-0.8,0-1.4,0.6-1.4,1.8v2.2h-0.4v-4.2h0.4v0.9c0.2-0.7,0.8-1,1.5-1c0.7,0,1.4,0.4,1.6,1.2c0.2-0.8,0.8-1.2,1.6-1.2
							c0.9,0,1.6,0.6,1.6,1.8v2.5H128L128,41.4L128,41.4z"/>
					</g>
					<g class="st5">
						<path class="st0" d="M131.4,43.9c-1.2,0-2.1-0.8-2.1-2.2c0-1.3,0.9-2.2,2.1-2.2c1.3,0,2,0.9,2,1.9c0,0.2,0,0.3,0,0.4h-3.7
							c0,1.2,0.8,1.7,1.7,1.7c0.8,0,1.4-0.4,1.6-1.1h0.4C133.2,43.3,132.5,43.9,131.4,43.9z M129.7,41.6h3.3
							c0.1-1.2-0.8-1.7-1.6-1.7C130.6,39.9,129.8,40.4,129.7,41.6z"/>
					</g>
					<g class="st5">
						<path class="st0" d="M139.7,42.5h-2.6l-0.5,1.4h-0.4l2-5.3h0.4l2,5.3h-0.4L139.7,42.5z M138.5,39l-1.2,3.2h2.4L138.5,39z"/>
					</g>
					<g class="st5">
						<path class="st0" d="M144.8,41.4c0-1-0.6-1.6-1.4-1.6c-0.9,0-1.5,0.6-1.5,1.7v2.3h-0.4v-4.2h0.4v0.9c0.2-0.7,0.9-1,1.6-1
							c0.9,0,1.7,0.6,1.7,1.8v2.5h-0.3L144.8,41.4L144.8,41.4z"/>
					</g>
					<g class="st5">
						<path class="st0" d="M149.3,39.6h0.4l-2.5,6.2h-0.4l0.8-2l-1.8-4.2h0.4l1.6,3.8L149.3,39.6z"/>
					</g>
					<g class="st5">
						<path class="st0" d="M150,39.6h0.4l1.1,3.8l1.4-3.8h0.3l1.3,3.8l1.1-3.8h0.4l-1.3,4.2h-0.3l-1.3-3.7l-1.4,3.7h-0.3L150,39.6z"
							/>
					</g>
					<g class="st5">
						<path class="st0" d="M156.8,38.1h0.4v2.4c0.2-0.7,0.9-1,1.6-1c0.9,0,1.7,0.6,1.7,1.8v2.5H160v-2.5c0-1-0.6-1.6-1.4-1.6
							c-0.9,0-1.5,0.6-1.5,1.7v2.3h-0.4L156.8,38.1L156.8,38.1z"/>
					</g>
					<g class="st5">
						<path class="st0" d="M163.4,43.9c-1.2,0-2.1-0.8-2.1-2.2c0-1.3,0.9-2.2,2.1-2.2c1.3,0,2,0.9,2,1.9c0,0.2,0,0.3,0,0.4h-3.7
							c0,1.2,0.8,1.7,1.7,1.7c0.8,0,1.4-0.4,1.6-1.1h0.4C165.2,43.3,164.5,43.9,163.4,43.9z M161.7,41.6h3.3
							c0.1-1.2-0.8-1.7-1.6-1.7C162.6,39.9,161.8,40.4,161.7,41.6z"/>
					</g>
					<g class="st5">
						<path class="st0" d="M166.8,43.9h-0.4v-4.2h0.4v0.9c0.2-0.6,0.7-1,1.6-1v0.4h-0.1c-0.7,0-1.4,0.4-1.4,1.5V43.9z"/>
					</g>
					<g class="st5">
						<path class="st0" d="M171,43.9c-1.2,0-2.1-0.8-2.1-2.2c0-1.3,0.9-2.2,2.1-2.2c1.3,0,2,0.9,2,1.9c0,0.2,0,0.3,0,0.4h-3.7
							c0,1.2,0.8,1.7,1.7,1.7c0.8,0,1.4-0.4,1.6-1.1h0.4C172.8,43.3,172.1,43.9,171,43.9z M169.3,41.6h3.3c0.1-1.2-0.8-1.7-1.6-1.7
							C170.2,39.9,169.4,40.4,169.3,41.6z"/>
					</g>
				</g>
			</g>
		</g>
		<g>
			<path d="M176.7,11.5v0.4h-1V15h-0.5v-3.1h-1v-0.4H176.7z"/>
			<path d="M180.9,11.5V15h-0.5v-2.6l-1.2,2.6h-0.3l-1.2-2.6V15h-0.5v-3.5h0.5l1.3,2.9l1.3-2.9L180.9,11.5L180.9,11.5z"/>
		</g>
	</g>
</g>
</svg>
